<?xml version="1.0" standalone="no"?>
<!DOCTYPE svg PUBLIC "-//W3C//DTD SVG 20010904//EN"
 "http://www.w3.org/TR/2001/REC-SVG-20010904/DTD/svg10.dtd">
<svg version="1.0" xmlns="http://www.w3.org/2000/svg"
 width="1000.000000pt" height="1000.000000pt" viewBox="0 0 1000.000000 1000.000000"
 preserveAspectRatio="xMidYMid meet">
<metadata>
Created by potrace 1.11, written by Peter Selinger 2001-2013
</metadata>
<g transform="translate(0.000000,1000.000000) scale(0.100000,-0.100000)"
fill="#000000" stroke="none">
<path d="M1355 9464 c-220 -45 -405 -211 -482 -431 l-27 -78 -2 -3930 c-1
-4002 -1 -4001 33 -4075 3 -8 7 -17 8 -20 34 -100 150 -238 259 -309 33 -22
97 -52 141 -68 l80 -27 3610 -2 c2945 -1 3622 2 3675 12 207 42 403 218 477
429 l27 80 2 3930 c1 3208 -2 3942 -12 3995 -45 222 -240 425 -469 488 -68 19
-153 19 -3665 19 -2812 0 -3608 -3 -3655 -13z m6965 -655 c70 -33 136 -99 169
-169 l25 -55 0 -705 0 -705 -28 -62 c-33 -72 -94 -134 -164 -166 l-47 -22
-3265 -2 c-2541 -2 -3273 0 -3303 10 -84 27 -185 129 -208 210 -9 31 -13 225
-14 722 -1 695 1 730 38 800 39 73 133 147 206 162 24 4 1504 8 3290 8 l3246
-1 55 -25z m-6045 -2549 c63 -16 166 -62 206 -92 58 -43 144 -133 182 -190 20
-31 50 -96 66 -145 26 -79 28 -99 26 -203 -3 -121 -4 -127 -30 -204 -42 -122
-132 -234 -270 -334 -10 -7 -86 -45 -95 -47 -3 0 -21 -6 -41 -13 -60 -21 -80
-24 -174 -27 -79 -3 -114 0 -200 19 -11 2 -46 15 -77 29 -221 98 -374 320
-382 554 -6 206 67 379 218 512 93 82 196 130 331 154 40 7 191 -1 240 -13z
m1920 0 c215 -53 406 -242 465 -460 18 -67 20 -218 4 -296 -49 -233 -235 -424
-471 -485 -98 -24 -248 -20 -343 10 -168 53 -323 193 -395 356 -50 112 -65
289 -34 410 57 229 256 421 484 468 79 16 216 15 290 -3z m1960 -14 c251 -80
430 -316 439 -581 7 -196 -56 -351 -196 -486 -120 -114 -249 -168 -413 -174
-126 -4 -205 12 -313 66 -150 74 -277 225 -327 389 -37 124 -24 319 30 437 85
187 283 345 461 369 27 3 51 8 52 9 2 2 45 2 95 0 63 -2 117 -11 172 -29z
m1845 21 c8 -2 31 -7 50 -12 142 -33 315 -174 392 -321 98 -185 95 -427 -6
-604 -78 -137 -220 -253 -369 -301 -59 -19 -93 -23 -192 -23 -104 0 -130 4
-198 27 -139 48 -251 135 -334 259 -69 105 -95 190 -99 324 -3 130 11 205 57
297 40 80 69 119 141 190 125 120 278 177 458 171 47 -2 92 -5 100 -7z m-5740
-1921 c210 -48 400 -219 471 -426 33 -99 35 -268 4 -376 -67 -227 -261 -406
-487 -449 -327 -62 -642 129 -740 450 -16 55 -22 109 -21 201 4 281 218 539
497 598 59 13 224 14 276 2z m1920 0 c197 -45 369 -191 453 -386 43 -99 55
-283 27 -395 -58 -227 -244 -412 -469 -465 -77 -18 -215 -19 -291 -2 -181 40
-352 176 -431 340 -45 93 -61 156 -64 256 -7 242 98 440 302 569 112 71 208
96 353 91 52 -1 106 -5 120 -8z m1897 0 c245 -43 456 -247 506 -491 45 -217
-23 -436 -182 -590 -32 -31 -67 -62 -77 -69 -213 -146 -514 -149 -717 -7 -78
55 -104 80 -153 143 -94 124 -127 224 -128 388 -1 133 21 220 82 324 86 146
271 279 422 302 19 3 36 7 37 8 9 8 145 4 210 -8z m1996 -20 c220 -74 389
-266 429 -488 11 -58 14 -277 13 -1098 -2 -1122 1 -1078 -60 -1206 -70 -147
-231 -290 -380 -338 -223 -71 -452 -19 -624 140 -98 91 -167 202 -198 319 -4
17 -9 505 -10 1084 -3 1032 -3 1057 17 1135 11 44 32 103 46 131 88 168 276
312 449 342 17 3 32 6 34 8 1 2 49 2 105 1 77 -3 120 -10 179 -30z m-5773
-1909 c215 -69 382 -241 441 -452 14 -53 19 -235 7 -295 -41 -204 -202 -390
-404 -466 -111 -42 -268 -50 -384 -19 -210 55 -394 237 -455 450 -18 62 -24
206 -12 280 28 178 170 370 337 456 96 49 186 68 310 64 65 -2 134 -9 160 -18z
m1923 -1 c200 -64 358 -219 423 -413 45 -135 37 -331 -18 -452 -126 -273 -395
-421 -688 -378 -124 18 -253 82 -346 172 -81 79 -155 212 -177 320 -48 232 35
477 210 622 87 73 199 128 277 139 16 2 31 6 33 8 11 11 241 -3 286 -18z
m1900 2 c233 -63 412 -252 460 -485 45 -214 -22 -430 -180 -585 -100 -97 -201
-150 -328 -172 -170 -30 -333 3 -469 96 -232 158 -340 452 -260 708 10 30 18
57 19 60 18 57 98 173 158 227 48 43 125 96 169 117 121 55 302 69 431 34z"/>
</g>
</svg>
